# xmcd
#
# Track frame offsets:
#	150
#	24397
#	57802
#	80155
#	108837
#	134667
#	179512
#	199640
#	227465
#
# Disc length: 3510 seconds
#
# Revision: 0
# Processed by: cddbd v1.5.1PL0 Copyright (c) Steve Scherf et al.
# Submitted via: dBpowerAMP V4.0
#
DISCID=720db409
DTITLE=Willie D Warren and Mystery Train - LIVE
DYEAR=1997
DGENRE=Blues
TTITLE0=Hello, Detroit
TTITLE1=Driftin' and Driftin'
TTITLE2=Cadillac Assembly Line
TTITLE3=Reconsider Baby
TTITLE4=Kansas City
TTITLE5=I've Had My Fun
TTITLE6=Baby Likes To Boogie
TTITLE7=Hootchie Cootchie Man
TTITLE8=The Blues Is Alright
EXTD=
EXTT0=
EXTT1=
EXTT2=
EXTT3=
EXTT4=
EXTT5=
EXTT6=
EXTT7=
EXTT8=
PLAYORDER=
